<?xml version="1.0" encoding="UTF-8" standalone="no"?>
<!-- Created with Inkscape (http://www.inkscape.org/) -->

<svg
   width="46.376236mm"
   height="53.114559mm"
   viewBox="0 0 46.376236 53.114559"
   version="1.1"
   id="svg4450"
   inkscape:version="1.1.2 (b8e25be833, 2022-02-05)"
   sodipodi:docname="apple_silhouette.svg"
   xmlns:inkscape="http://www.inkscape.org/namespaces/inkscape"
   xmlns:sodipodi="http://sodipodi.sourceforge.net/DTD/sodipodi-0.dtd"
   xmlns="http://www.w3.org/2000/svg"
   xmlns:svg="http://www.w3.org/2000/svg">
  <sodipodi:namedview
     id="namedview4452"
     pagecolor="#505050"
     bordercolor="#ffffff"
     borderopacity="1"
     inkscape:pageshadow="0"
     inkscape:pageopacity="0"
     inkscape:pagecheckerboard="1"
     inkscape:document-units="mm"
     showgrid="false"
     inkscape:zoom="2.9611953"
     inkscape:cx="61.292817"
     inkscape:cy="118.87092"
     inkscape:window-width="1920"
     inkscape:window-height="1017"
     inkscape:window-x="-8"
     inkscape:window-y="-8"
     inkscape:window-maximized="1"
     inkscape:current-layer="layer1" />
  <defs
     id="defs4447" />
  <g
     inkscape:label="Layer 1"
     inkscape:groupmode="layer"
     id="layer1"
     transform="translate(-125.13318,-102.82168)">
    <path
       style="fill:#000000;fill-opacity:0.5;stroke:#000000;stroke-width:0.264583px;stroke-linecap:butt;stroke-linejoin:miter;stroke-opacity:1"
       d="m 159.81473,154.60527 c 0,0 2.51903,-0.75571 4.40831,-2.89688 1.88927,-2.14118 3.77854,-6.54948 3.77854,-6.54948 0,0 4.40831,-8.18685 3.14879,-16.43668 -1.25951,-8.24982 -6.80138,-11.83944 -6.80138,-11.83944 0,0 -3.96748,-2.39307 -6.54948,-2.26712 -0.63261,0.0309 -3.85248,-0.0255 -5.90815,-0.004 -0.4183,0.004 -2.6e-4,-0.94177 0.95058,-1.99557 0.8264,-0.9159 2.6588,-1.6296 2.18785,-2.43827 0,0 -0.64647,-1.05891 -1.34619,-0.32884 -0.82299,0.8587 -2.763,2.82896 -3.17149,4.64703 -0.18902,0.0553 -1.75087,0.77029 -3.09694,-0.67482 -2.96989,-3.18839 -0.0375,-6.79667 -7.65144,-10.15593 -2.24947,-0.99245 -15.94041,-1.27252 -14.37379,1.34966 1.13309,1.89656 3.23951,5.7211 6.29081,6.89118 3.78669,1.45209 11.25269,1.67053 14.10673,1.96927 1.21417,0.12709 -0.14229,0.67716 -0.14229,0.67716 0,0 -2.77093,0.50381 -3.65259,0.44084 -0.88166,-0.063 -3.96748,0.56678 -3.96748,0.56678 0,0 -2.95986,1.07058 -5.60484,3.46366 -2.64498,2.39308 -5.47889,7.43114 -5.16401,13.09896 0.31488,5.66782 2.3301,9.69827 2.3301,9.69827 0,0 3.46367,7.809 5.91972,9.32042 2.45606,1.51141 5.7308,3.46366 5.7308,3.46366 0,0 3.27474,1.25952 10.20207,1.19654 6.92733,-0.063 8.37577,-1.19654 8.37577,-1.19654 z"
       id="path1363"
       sodipodi:nodetypes="cscscssscscssssscscsscscscc" />
  </g>
</svg>
